<svg width="654pt" height="404pt" viewBox="0.00 0.00 654.00 404.00" xmlns="http://www.w3.org/2000/svg" xmlns:xlink="http://www.w3.org/1999/xlink">
<g id="graph1" class="graph" transform="scale(1 1) rotate(0) translate(4 400)">
<title>jdepend</title>
<polygon fill="white" stroke="white" points="-4,5 -4,-400 651,-400 651,5 -4,5"></polygon>
<!-- com.tiemens.secretshare.math -->
<g id="node1" class="node"><title>com.tiemens.secretshare.math</title>
<ellipse fill="none" stroke="black" cx="446" cy="-162" rx="127.212" ry="18"></ellipse>
<text text-anchor="middle" x="446" y="-157.8" font-family="Times,serif" font-size="14.00">com.tiemens.secretshare.math</text>
</g>
<!-- com.tiemens.secretshare.md5sum -->
<g id="node3" class="node"><title>com.tiemens.secretshare.md5sum</title>
<ellipse fill="none" stroke="black" cx="446" cy="-90" rx="141.143" ry="18"></ellipse>
<text text-anchor="middle" x="446" y="-85.8" font-family="Times,serif" font-size="14.00">com.tiemens.secretshare.md5sum</text>
</g>
<!-- com.tiemens.secretshare.math&#45;&gt;com.tiemens.secretshare.md5sum -->
<g id="edge2" class="edge"><title>com.tiemens.secretshare.math-&gt;com.tiemens.secretshare.md5sum</title>
<path fill="none" stroke="black" d="M446,-143.697C446,-135.983 446,-126.712 446,-118.112"></path>
<polygon fill="black" stroke="black" points="449.5,-118.104 446,-108.104 442.5,-118.104 449.5,-118.104"></polygon>
</g>
<!-- com.tiemens.secretshare.exceptions -->
<g id="node5" class="node"><title>com.tiemens.secretshare.exceptions</title>
<ellipse fill="none" stroke="black" cx="277" cy="-18" rx="149.19" ry="18"></ellipse>
<text text-anchor="middle" x="277" y="-13.8" font-family="Times,serif" font-size="14.00">com.tiemens.secretshare.exceptions</text>
</g>
<!-- com.tiemens.secretshare.math&#45;&gt;com.tiemens.secretshare.exceptions -->
<g id="edge4" class="edge"><title>com.tiemens.secretshare.math-&gt;com.tiemens.secretshare.exceptions</title>
<path fill="none" stroke="black" d="M363.967,-148.114C338.966,-140.354 313.498,-127.921 296,-108 281.22,-91.1736 276.982,-65.6941 276.144,-46.303"></path>
<polygon fill="black" stroke="black" points="279.643,-46.1926 275.982,-36.2502 272.643,-46.3052 279.643,-46.1926"></polygon>
</g>
<!-- com.tiemens.secretshare.md5sum&#45;&gt;com.tiemens.secretshare.exceptions -->
<g id="edge10" class="edge"><title>com.tiemens.secretshare.md5sum-&gt;com.tiemens.secretshare.exceptions</title>
<path fill="none" stroke="black" d="M406.377,-72.5881C382.414,-62.6626 351.668,-49.9274 326.161,-39.3626"></path>
<polygon fill="black" stroke="black" points="327.245,-36.0234 316.667,-35.4302 324.567,-42.4906 327.245,-36.0234"></polygon>
</g>
<!-- com.tiemens.secretshare.main.example -->
<g id="node6" class="node"><title>com.tiemens.secretshare.main.example</title>
<ellipse fill="none" stroke="black" cx="162" cy="-378" rx="161.903" ry="18"></ellipse>
<text text-anchor="middle" x="162" y="-373.8" font-family="Times,serif" font-size="14.00">com.tiemens.secretshare.main.example</text>
</g>
<!-- com.tiemens.secretshare.engine -->
<g id="node8" class="node"><title>com.tiemens.secretshare.engine</title>
<ellipse fill="none" stroke="black" cx="369" cy="-306" rx="133.359" ry="18"></ellipse>
<text text-anchor="middle" x="369" y="-301.8" font-family="Times,serif" font-size="14.00">com.tiemens.secretshare.engine</text>
</g>
<!-- com.tiemens.secretshare.main.example&#45;&gt;com.tiemens.secretshare.engine -->
<g id="edge6" class="edge"><title>com.tiemens.secretshare.main.example-&gt;com.tiemens.secretshare.engine</title>
<path fill="none" stroke="black" d="M210.01,-360.765C240.533,-350.443 280.197,-337.03 312.272,-326.183"></path>
<polygon fill="black" stroke="black" points="313.612,-329.425 321.964,-322.906 311.37,-322.794 313.612,-329.425"></polygon>
</g>
<!-- com.tiemens.secretshare -->
<g id="node10" class="node"><title>com.tiemens.secretshare</title>
<ellipse fill="none" stroke="black" cx="112" cy="-306" rx="105.124" ry="18"></ellipse>
<text text-anchor="middle" x="112" y="-301.8" font-family="Times,serif" font-size="14.00">com.tiemens.secretshare</text>
</g>
<!-- com.tiemens.secretshare.main.example&#45;&gt;com.tiemens.secretshare -->
<g id="edge8" class="edge"><title>com.tiemens.secretshare.main.example-&gt;com.tiemens.secretshare</title>
<path fill="none" stroke="black" d="M149.64,-359.697C143.767,-351.474 136.631,-341.483 130.158,-332.421"></path>
<polygon fill="black" stroke="black" points="132.878,-330.207 124.217,-324.104 127.182,-334.276 132.878,-330.207"></polygon>
</g>
<!-- com.tiemens.secretshare.engine&#45;&gt;com.tiemens.secretshare.math -->
<g id="edge12" class="edge"><title>com.tiemens.secretshare.engine-&gt;com.tiemens.secretshare.math</title>
<path fill="none" stroke="black" d="M425.175,-289.552C443.68,-281.501 462.253,-269.538 473,-252 484.962,-232.478 475.389,-207.277 464.468,-188.678"></path>
<polygon fill="black" stroke="black" points="467.376,-186.728 459.086,-180.131 461.453,-190.458 467.376,-186.728"></polygon>
</g>
<!-- com.tiemens.secretshare.engine&#45;&gt;com.tiemens.secretshare.exceptions -->
<g id="edge14" class="edge"><title>com.tiemens.secretshare.engine-&gt;com.tiemens.secretshare.exceptions</title>
<path fill="none" stroke="black" d="M271.162,-293.775C218.852,-285.542 161.975,-272.217 146,-252 90.7194,-182.041 192.211,-85.846 246.289,-42.205"></path>
<polygon fill="black" stroke="black" points="248.561,-44.8704 254.215,-35.9103 244.207,-39.3889 248.561,-44.8704"></polygon>
</g>
<!-- com.tiemens.secretshare.math.matrix -->
<g id="node15" class="node"><title>com.tiemens.secretshare.math.matrix</title>
<ellipse fill="none" stroke="black" cx="310" cy="-234" rx="154.148" ry="18"></ellipse>
<text text-anchor="middle" x="310" y="-229.8" font-family="Times,serif" font-size="14.00">com.tiemens.secretshare.math.matrix</text>
</g>
<!-- com.tiemens.secretshare.engine&#45;&gt;com.tiemens.secretshare.math.matrix -->
<g id="edge16" class="edge"><title>com.tiemens.secretshare.engine-&gt;com.tiemens.secretshare.math.matrix</title>
<path fill="none" stroke="black" d="M354.718,-288.055C347.649,-279.668 338.974,-269.376 331.153,-260.096"></path>
<polygon fill="black" stroke="black" points="333.682,-257.666 324.561,-252.275 328.329,-262.177 333.682,-257.666"></polygon>
</g>
<!-- com.tiemens.secretshare.math.matrix&#45;&gt;com.tiemens.secretshare.math -->
<g id="edge20" class="edge"><title>com.tiemens.secretshare.math.matrix-&gt;com.tiemens.secretshare.math</title>
<path fill="none" stroke="black" d="M342.575,-216.233C361.163,-206.666 384.651,-194.577 404.543,-184.338"></path>
<polygon fill="black" stroke="black" points="406.401,-187.318 413.69,-179.63 403.197,-181.094 406.401,-187.318"></polygon>
</g>
<!-- com.tiemens.secretshare.math.matrix&#45;&gt;com.tiemens.secretshare.exceptions -->
<g id="edge18" class="edge"><title>com.tiemens.secretshare.math.matrix-&gt;com.tiemens.secretshare.exceptions</title>
<path fill="none" stroke="black" d="M303.791,-215.908C295.506,-192.107 281.27,-147.457 276,-108 273.882,-92.1409 275.849,-87.9993 276,-72 276.078,-63.6817 276.226,-54.63 276.384,-46.3999"></path>
<polygon fill="black" stroke="black" points="279.888,-46.2542 276.594,-36.1846 272.89,-46.1108 279.888,-46.2542"></polygon>
</g>
<!-- com.tiemens.secretshare.main.cli -->
<g id="node18" class="node"><title>com.tiemens.secretshare.main.cli</title>
<ellipse fill="none" stroke="black" cx="506" cy="-378" rx="139.314" ry="18"></ellipse>
<text text-anchor="middle" x="506" y="-373.8" font-family="Times,serif" font-size="14.00">com.tiemens.secretshare.main.cli</text>
</g>
<!-- com.tiemens.secretshare.main.cli&#45;&gt;com.tiemens.secretshare.math -->
<g id="edge24" class="edge"><title>com.tiemens.secretshare.main.cli-&gt;com.tiemens.secretshare.math</title>
<path fill="none" stroke="black" d="M508.031,-359.843C509.155,-349.481 510.435,-336.002 511,-324 513.299,-275.155 512.941,-259.183 490,-216 484.728,-206.076 477.398,-196.296 470.231,-187.892"></path>
<polygon fill="black" stroke="black" points="472.74,-185.447 463.482,-180.296 467.507,-190.097 472.74,-185.447"></polygon>
</g>
<!-- com.tiemens.secretshare.main.cli&#45;&gt;com.tiemens.secretshare.exceptions -->
<g id="edge22" class="edge"><title>com.tiemens.secretshare.main.cli-&gt;com.tiemens.secretshare.exceptions</title>
<path fill="none" stroke="black" d="M531.007,-360.292C563.187,-336.568 615,-289.853 615,-235 615,-235 615,-235 615,-161 615,-120.553 625.246,-99.9396 596,-72 570.363,-47.5082 492.367,-34.2825 419.921,-27.1677"></path>
<polygon fill="black" stroke="black" points="420.027,-23.6622 409.742,-26.2038 419.367,-30.631 420.027,-23.6622"></polygon>
</g>
<!-- com.tiemens.secretshare.main.cli&#45;&gt;com.tiemens.secretshare.engine -->
<g id="edge26" class="edge"><title>com.tiemens.secretshare.main.cli-&gt;com.tiemens.secretshare.engine</title>
<path fill="none" stroke="black" d="M473.533,-360.411C454.594,-350.734 430.519,-338.433 410.248,-328.076"></path>
<polygon fill="black" stroke="black" points="411.731,-324.903 401.234,-323.47 408.546,-331.137 411.731,-324.903"></polygon>
</g>
<!-- com.tiemens.secretshare.main.cli&#45;&gt;com.tiemens.secretshare -->
<g id="edge28" class="edge"><title>com.tiemens.secretshare.main.cli-&gt;com.tiemens.secretshare</title>
<path fill="none" stroke="black" d="M427.687,-363.087C359.453,-350.964 260.933,-333.46 192.16,-321.242"></path>
<polygon fill="black" stroke="black" points="192.694,-317.782 182.236,-319.478 191.47,-324.674 192.694,-317.782"></polygon>
</g>
</g>
</svg>
